<?xml version="1.0" encoding="UTF-8"?>
<!DOCTYPE svg PUBLIC "-//W3C//DTD SVG 1.1//EN" "http://www.w3.org/Graphics/SVG/1.1/DTD/svg11.dtd">
<svg xmlns="http://www.w3.org/2000/svg" version="1.1" width="894px" height="893px" style="shape-rendering:geometricPrecision; text-rendering:geometricPrecision; image-rendering:optimizeQuality; fill-rule:evenodd; clip-rule:evenodd" xmlns:xlink="http://www.w3.org/1999/xlink">
<g><path style="opacity:0.998" fill="#050403" d="M 793.5,201.5 C 793.427,203.027 794.094,204.027 795.5,204.5C 854.057,290.053 878.557,384.719 869,488.5C 859.117,577.16 825.784,654.827 769,721.5C 771.643,739.767 770.309,757.767 765,775.5C 756.372,796.794 741.205,811.294 719.5,819C 687.067,829.144 654.401,838.477 621.5,847C 611.52,853.82 600.52,858.153 588.5,860C 578.187,860.966 567.854,861.632 557.5,862C 551.996,863.057 546.662,864.723 541.5,867C 533.317,868.633 525.817,867.133 519,862.5C 383.583,882.621 264.749,847.788 162.5,758C 61.7506,661.92 16.5839,544.086 27,404.5C 41.5962,278.38 99.4295,177.547 200.5,102C 313.636,24.4213 436.636,3.75466 569.5,40C 662.507,68.6454 737.174,122.479 793.5,201.5 Z M 716.5,601.5 C 717.833,600.833 719.167,600.167 720.5,599.5C 742.205,599.886 760.372,592.219 775,576.5C 782.735,565.963 786.902,554.13 787.5,541C 783.515,520.257 780.015,499.423 777,478.5C 775.209,425.046 767.876,372.379 755,320.5C 740.416,264.671 715.75,214.004 681,168.5C 623.578,100.228 550.078,69.3946 460.5,76C 401.027,80.4931 345.694,97.8264 294.5,128C 228.392,171.515 187.559,232.348 172,310.5C 162.02,365.655 160.854,420.988 168.5,476.5C 168.539,480.733 169.205,484.733 170.5,488.5C 171.954,501.939 174.121,515.272 177,528.5C 186.775,567.267 195.442,606.267 203,645.5C 214.358,670.601 233.858,682.601 261.5,681.5C 254.696,715.322 248.863,749.322 244,783.5C 146.864,722.631 85.864,635.965 61,523.5C 38.0864,392.779 70.0864,277.779 157,178.5C 247.971,84.0517 359.138,42.2184 490.5,53C 626.478,71.3614 728.312,139.861 796,258.5C 846.493,356.233 856.16,457.9 825,563.5C 810.219,610.073 787.885,652.407 758,690.5C 748.18,670.181 736.847,650.847 724,632.5C 724.953,628.383 726.12,624.216 727.5,620C 726.799,614.085 723.965,609.585 719,606.5C 718.153,604.807 717.32,603.14 716.5,601.5 Z"/></g>
<g><path style="opacity:0.431" fill="#7c7c7c" d="M 793.5,201.5 C 794.906,201.973 795.573,202.973 795.5,204.5C 794.094,204.027 793.427,203.027 793.5,201.5 Z"/></g>
<g><path style="opacity:1" fill="#fefefd" d="M 577.5,255.5 C 582.954,269.026 588.121,282.693 593,296.5C 594.167,297.667 595.333,298.833 596.5,300C 616.207,300.463 635.874,301.463 655.5,303C 678.149,311.649 693.315,327.482 701,350.5C 705.529,373.704 709.363,397.037 712.5,420.5C 712.53,421.497 712.03,422.164 711,422.5C 704.267,421.136 697.767,421.969 691.5,425C 689.561,425.908 688.561,427.408 688.5,429.5C 687.022,429.238 685.689,429.571 684.5,430.5C 676.162,439.135 674.329,449.135 679,460.5C 690.165,472.098 703.332,474.765 718.5,468.5C 720.693,491.037 716.526,512.37 706,532.5C 692.883,555.95 674.717,574.45 651.5,588C 614.373,610.157 574.206,622.324 531,624.5C 528.833,624.167 526.667,623.833 524.5,623.5C 517.86,602.041 506.527,583.541 490.5,568C 487.167,565.667 483.833,563.333 480.5,561C 469.5,556 458.5,551 447.5,546C 439.296,538.293 430.963,530.793 422.5,523.5C 422.611,522.883 422.944,522.383 423.5,522C 438.085,520.63 449.252,513.796 457,501.5C 459.593,492.375 457.427,484.541 450.5,478C 429.167,466.869 410.334,470.035 394,487.5C 390.539,492.781 389.705,498.448 391.5,504.5C 383.181,503.127 375.848,505.127 369.5,510.5C 358.117,505.032 348.283,507.032 340,516.5C 335.681,521.163 331.681,526.163 328,531.5C 325.49,536.195 324.323,541.195 324.5,546.5C 322.856,546.714 321.356,546.38 320,545.5C 313.809,530.257 308.809,514.591 305,498.5C 300.673,478.197 296.673,457.864 293,437.5C 290.771,419.521 295.771,403.854 308,390.5C 315.964,382.197 324.797,375.03 334.5,369C 360.859,357.547 387.526,346.881 414.5,337C 415.667,335.833 416.833,334.667 418,333.5C 420.349,324.767 422.682,316.1 425,307.5C 427.333,312.167 429.667,316.833 432,321.5C 434.132,324.316 436.965,325.649 440.5,325.5C 482.689,317.203 525.023,309.703 567.5,303C 571.471,301.12 573.637,297.953 574,293.5C 574.765,287.183 575.265,280.849 575.5,274.5C 576.167,268.167 576.833,261.833 577.5,255.5 Z"/></g>
<g><path style="opacity:1" fill="#a6a5a3" d="M 577.5,255.5 C 576.833,261.833 576.167,268.167 575.5,274.5C 575.334,267.492 575.5,260.492 576,253.5C 576.717,254.044 577.217,254.711 577.5,255.5 Z"/></g>
<g><path style="opacity:1" fill="#0d0d0d" d="M 654.5,362.5 C 659.179,362.334 663.845,362.501 668.5,363C 673.428,366.517 673.761,370.517 669.5,375C 655.398,375.02 641.898,377.854 629,383.5C 622.435,381.698 620.935,377.864 624.5,372C 634.275,367.684 644.275,364.517 654.5,362.5 Z"/></g>
<g><path style="opacity:1" fill="#090909" d="M 471.5,395.5 C 476.897,395.215 482.23,395.549 487.5,396.5C 490.942,401.656 489.942,405.489 484.5,408C 469.85,407.163 455.85,409.663 442.5,415.5C 437.21,414.696 435.377,411.696 437,406.5C 439.408,404.044 442.241,402.211 445.5,401C 454.068,397.959 462.735,396.126 471.5,395.5 Z"/></g>
<g><path style="opacity:1" fill="#070707" d="M 649.5,399.5 C 662.913,398.419 671.08,404.419 674,417.5C 675.674,424.198 675.674,430.864 674,437.5C 669.171,446.496 661.671,449.996 651.5,448C 642.742,445.014 637.908,438.847 637,429.5C 632.713,415.762 636.88,405.762 649.5,399.5 Z"/></g>
<g><path style="opacity:1" fill="#f3f3f3" d="M 656.5,405.5 C 659.5,406.833 662.5,408.167 665.5,409.5C 665.978,412.278 664.978,414.278 662.5,415.5C 661.754,416.736 661.421,418.07 661.5,419.5C 658.269,418.138 655.102,416.471 652,414.5C 653.403,411.693 654.903,408.693 656.5,405.5 Z"/></g>
<g><path style="opacity:1" fill="#fbc7bd" d="M 712.5,420.5 C 714.496,430.295 715.663,440.295 716,450.5C 714.08,447.661 712.413,444.661 711,441.5C 709.989,440.663 708.822,440.33 707.5,440.5C 708.22,445.277 710.053,449.61 713,453.5C 714.356,454.38 715.856,454.714 717.5,454.5C 717.833,459.167 718.167,463.833 718.5,468.5C 703.332,474.765 690.165,472.098 679,460.5C 674.329,449.135 676.162,439.135 684.5,430.5C 685.689,429.571 687.022,429.238 688.5,429.5C 688.561,427.408 689.561,425.908 691.5,425C 697.767,421.969 704.267,421.136 711,422.5C 712.03,422.164 712.53,421.497 712.5,420.5 Z"/></g>
<g><path style="opacity:1" fill="#070606" d="M 463.5,432.5 C 474.371,431.688 481.871,436.355 486,446.5C 486.733,451.528 487.567,456.528 488.5,461.5C 488.759,471.167 484.426,477.667 475.5,481C 463.691,483.838 455.524,479.671 451,468.5C 449.669,461.197 449.003,453.863 449,446.5C 451.774,439.557 456.607,434.89 463.5,432.5 Z"/></g>
<g><path style="opacity:1" fill="#f7c6ba" d="M 564.5,437.5 C 576.905,435.751 584.572,440.918 587.5,453C 587.01,454.982 586.01,456.649 584.5,458C 575.814,459.392 567.148,460.892 558.5,462.5C 554.245,461.573 552.245,458.906 552.5,454.5C 552.313,449.556 553.979,445.389 557.5,442C 560.295,440.953 562.628,439.453 564.5,437.5 Z"/></g>
<g><path style="opacity:1" fill="#f0f0f0" d="M 470.5,439.5 C 473.14,441.246 475.973,442.913 479,444.5C 479.449,447.094 478.449,449.094 476,450.5C 475.517,451.448 475.351,452.448 475.5,453.5C 474.127,453.657 472.793,453.49 471.5,453C 469.369,451.251 467.369,449.418 465.5,447.5C 467.664,445.178 469.331,442.511 470.5,439.5 Z"/></g>
<g><path style="opacity:1" fill="#190e0a" d="M 694.5,443.5 C 695.822,443.33 696.989,443.663 698,444.5C 700.614,448.578 702.447,452.911 703.5,457.5C 702.178,457.67 701.011,457.337 700,456.5C 697.053,452.61 695.22,448.277 694.5,443.5 Z"/></g>
<g><path style="opacity:0.855" fill="#484746" d="M 168.5,476.5 C 171.043,480.228 171.709,484.228 170.5,488.5C 169.205,484.733 168.539,480.733 168.5,476.5 Z"/></g>
<g><path style="opacity:1" fill="#f6c3b8" d="M 422.5,523.5 C 413.561,514.865 403.227,508.532 391.5,504.5C 389.705,498.448 390.539,492.781 394,487.5C 410.334,470.035 429.167,466.869 450.5,478C 457.427,484.541 459.593,492.375 457,501.5C 449.252,513.796 438.085,520.63 423.5,522C 422.944,522.383 422.611,522.883 422.5,523.5 Z"/></g>
<g><path style="opacity:1" fill="#160b09" d="M 432.5,486.5 C 435.292,486.452 437.125,487.785 438,490.5C 440.035,493.561 441.201,496.895 441.5,500.5C 439.408,500.439 437.908,499.439 437,497.5C 434.901,493.983 433.401,490.316 432.5,486.5 Z"/></g>
<g><path style="opacity:1" fill="#180f0c" d="M 419.5,488.5 C 420.822,488.33 421.989,488.663 423,489.5C 425.43,493.681 427.264,498.014 428.5,502.5C 427.178,502.67 426.011,502.337 425,501.5C 422.833,497.833 420.667,494.167 418.5,490.5C 418.863,489.817 419.196,489.15 419.5,488.5 Z"/></g>
<g><path style="opacity:1" fill="#050404" d="M 579.5,491.5 C 590.375,490.375 600.542,492.375 610,497.5C 610.339,513.955 602.505,524.455 586.5,529C 576.233,531.83 565.899,532.164 555.5,530C 545.014,526.486 539.847,519.32 540,508.5C 551.519,498.833 564.686,493.166 579.5,491.5 Z"/></g>
<g><path style="opacity:1" fill="#1c120f" d="M 405.5,491.5 C 407.144,491.286 408.644,491.62 410,492.5C 411.667,495.5 413.333,498.5 415,501.5C 415.829,504.674 414.829,505.674 412,504.5C 409.274,500.381 407.107,496.048 405.5,491.5 Z"/></g>
<g><path style="opacity:1" fill="#fdfdfd" d="M 382.5,519.5 C 389.063,519.409 395.063,521.242 400.5,525C 413.129,535.293 425.462,545.96 437.5,557C 450.833,563.667 464.167,570.333 477.5,577C 490.421,587.605 499.921,600.771 506,616.5C 513.371,636.984 518.704,657.984 522,679.5C 524.246,695.135 526.246,710.802 528,726.5C 529.099,745.907 528.433,765.24 526,784.5C 521.854,813.014 506.021,831.181 478.5,839C 419.134,850.392 372.968,830.892 340,780.5C 333.562,769.456 328.062,757.956 323.5,746C 331.297,734.536 341.297,725.536 353.5,719C 364.816,712.729 376.816,708.562 389.5,706.5C 389.697,720.842 390.197,735.175 391,749.5C 394.804,755.377 399.471,756.044 405,751.5C 405.258,718.444 403.925,685.444 401,652.5C 382.429,642.956 365.763,630.622 351,615.5C 345.054,606.96 341.387,597.627 340,587.5C 346.502,592.379 351.002,590.879 353.5,583C 349.809,575.118 345.976,567.284 342,559.5C 340.475,556.28 339.808,552.947 340,549.5C 345.453,561.585 352.286,572.752 360.5,583C 369.333,584.833 372.833,581.333 371,572.5C 362.235,560.971 355.568,548.305 351,534.5C 349.192,526.481 352.358,522.481 360.5,522.5C 361.706,531.25 364.873,539.25 370,546.5C 375.076,554.247 380.909,561.413 387.5,568C 393.629,569.439 397.296,567.106 398.5,561C 391.964,550.778 385.797,540.278 380,529.5C 377.417,525.162 378.25,521.829 382.5,519.5 Z"/></g>
<g><path style="opacity:1" fill="#fdfdfc" d="M 318.5,562.5 C 319.833,562.5 321.167,562.5 322.5,562.5C 321.04,588.023 328.207,610.689 344,630.5C 356.331,642.582 370.164,652.582 385.5,660.5C 386.298,662.078 386.798,663.744 387,665.5C 387.583,674.166 388.083,682.833 388.5,691.5C 357.061,696.722 331.061,711.555 310.5,736C 308.299,736.825 306.466,736.325 305,734.5C 287.079,701.091 280.079,665.424 284,627.5C 287.182,606.145 295.516,587.145 309,570.5C 312.145,567.696 315.312,565.03 318.5,562.5 Z"/></g>
<g><path style="opacity:1" fill="#fbfafb" d="M 681.5,585.5 C 686.349,587.836 690.516,591.169 694,595.5C 699.537,602.739 704.704,610.239 709.5,618C 682.291,618.759 657.791,627.259 636,643.5C 633.648,633.884 632.481,624.218 632.5,614.5C 650.019,606.584 666.352,596.917 681.5,585.5 Z"/></g>
<g><path style="opacity:0.043" fill="#8e8d8b" d="M 720.5,599.5 C 719.167,600.167 717.833,600.833 716.5,601.5C 715.957,601.44 715.624,601.107 715.5,600.5C 717.045,599.548 718.712,599.215 720.5,599.5 Z"/></g>
<g><path style="opacity:1" fill="#f0f0f0" d="M 573.5,633.5 C 575.5,633.5 577.5,633.5 579.5,633.5C 579.5,635.5 579.5,637.5 579.5,639.5C 563.421,643.601 547.088,646.268 530.5,647.5C 529.908,644.873 529.575,642.206 529.5,639.5C 544.5,638.96 559.166,636.96 573.5,633.5 Z"/></g>
<g><path style="opacity:1" fill="#fdfdfd" d="M 547.5,812.5 C 545.484,811.544 543.651,810.21 542,808.5C 541.36,806.735 541.527,805.068 542.5,803.5C 545.534,802.881 548.534,802.047 551.5,801C 555.5,797 555.5,793 551.5,789C 548.312,787.684 544.978,787.184 541.5,787.5C 543.005,774.214 543.672,760.881 543.5,747.5C 577.594,735.953 611.594,724.12 645.5,712C 653.587,707.69 661.921,703.857 670.5,700.5C 674.876,695.257 674.21,690.757 668.5,687C 666.5,686.333 664.5,686.333 662.5,687C 657.984,689.424 653.317,691.59 648.5,693.5C 645.106,682.03 642.939,670.363 642,658.5C 660.817,643.118 682.317,635.285 706.5,635C 725.689,660.537 740.855,688.37 752,718.5C 754.852,732.433 755.185,746.433 753,760.5C 747.598,781.569 734.764,796.069 714.5,804C 681.922,814.718 648.922,824.051 615.5,832C 605.216,839.875 593.55,844.208 580.5,845C 564.671,843.879 549.504,846.379 535,852.5C 529.18,850.996 527.18,847.329 529,841.5C 536.216,833.639 545.049,828.473 555.5,826C 559.5,822 559.5,818 555.5,814C 552.986,812.748 550.32,812.248 547.5,812.5 Z"/></g>
<g><path style="opacity:1" fill="#e6e5e3" d="M 565.5,682.5 C 566.833,682.5 568.167,682.5 569.5,682.5C 569.5,683.833 569.5,685.167 569.5,686.5C 565.56,687.234 564.227,685.901 565.5,682.5 Z"/></g>
<g><path style="opacity:1" fill="#f0f0ee" d="M 573.5,682.5 C 574.822,682.33 575.989,682.663 577,683.5C 577.082,689.269 578.248,694.769 580.5,700C 579.055,703.137 577.222,703.303 575,700.5C 573.928,694.545 573.428,688.545 573.5,682.5 Z"/></g>
<g><path style="opacity:1" fill="#eeeeec" d="M 549.5,684.5 C 550.822,684.33 551.989,684.663 553,685.5C 553.333,687.5 553.667,689.5 554,691.5C 556.667,688.833 559.333,688.833 562,691.5C 563.277,695.097 563.61,698.764 563,702.5C 561.951,703.517 560.784,703.684 559.5,703C 558.549,699.943 558.216,696.777 558.5,693.5C 557.167,693.5 555.833,693.5 554.5,693.5C 554.5,696.833 554.5,700.167 554.5,703.5C 553.167,703.5 551.833,703.5 550.5,703.5C 549.986,697.178 549.653,690.845 549.5,684.5 Z"/></g>
<g><path style="opacity:1" fill="#eeedeb" d="M 590.5,680.5 C 591.496,680.414 592.329,680.748 593,681.5C 594.107,687.787 594.607,694.12 594.5,700.5C 593.178,700.67 592.011,700.337 591,699.5C 587.308,702.328 584.308,701.662 582,697.5C 580.773,693.409 581.606,689.909 584.5,687C 586.112,686.28 587.612,686.446 589,687.5C 589.29,685.08 589.79,682.746 590.5,680.5 Z"/></g>
<g><path style="opacity:1" fill="#1c1b1b" d="M 586.5,690.5 C 587.833,690.5 589.167,690.5 590.5,690.5C 590.662,692.527 590.495,694.527 590,696.5C 587.247,697.779 585.747,696.779 585.5,693.5C 585.685,692.416 586.018,691.416 586.5,690.5 Z"/></g>
<g><path style="opacity:1" fill="#eeedeb" d="M 566.5,688.5 C 567.822,688.33 568.989,688.663 570,689.5C 570.499,693.821 570.666,698.154 570.5,702.5C 569.178,702.67 568.011,702.337 567,701.5C 565.909,697.102 565.742,692.769 566.5,688.5 Z"/></g>
<g><path style="opacity:1" fill="#dfdedd" d="M 541.5,690.5 C 548.098,691.694 548.098,693.361 541.5,695.5C 540.086,700.435 542.086,702.435 547.5,701.5C 547.67,702.822 547.337,703.989 546.5,705C 544.527,705.495 542.527,705.662 540.5,705.5C 538.908,700.227 539.242,695.227 541.5,690.5 Z"/></g>
<g><path style="opacity:1" fill="#e3e2e0" d="M 542.5,803.5 C 541.527,805.068 541.36,806.735 542,808.5C 543.651,810.21 545.484,811.544 547.5,812.5C 541.742,814.764 536.075,817.43 530.5,820.5C 530.167,820.167 529.833,819.833 529.5,819.5C 532.212,815.034 534.546,810.367 536.5,805.5C 538.45,804.628 540.45,803.961 542.5,803.5 Z"/></g>
</svg>
