<?xml version="1.0" encoding="UTF-8"?>
<!DOCTYPE svg PUBLIC "-//W3C//DTD SVG 1.1//EN" "http://www.w3.org/Graphics/SVG/1.1/DTD/svg11.dtd">
<svg xmlns="http://www.w3.org/2000/svg" version="1.1" width="1000px" height="1000px" style="shape-rendering:geometricPrecision; text-rendering:geometricPrecision; image-rendering:optimizeQuality; fill-rule:evenodd; clip-rule:evenodd" xmlns:xlink="http://www.w3.org/1999/xlink">
<g><path style="opacity:1" fill="#fefefe" d="M -0.5,-0.5 C 332.833,-0.5 666.167,-0.5 999.5,-0.5C 999.5,332.833 999.5,666.167 999.5,999.5C 902.167,999.5 804.833,999.5 707.5,999.5C 707.333,973.165 707.5,946.831 708,920.5C 736.994,904.57 752.994,879.903 756,846.5C 758.867,812.046 752.701,779.38 737.5,748.5C 741.468,742.893 742.301,736.893 740,730.5C 729.823,708.123 716.656,687.789 700.5,669.5C 703.5,669.167 706.5,668.833 709.5,668.5C 741.814,670.507 774.147,671.674 806.5,672C 820.981,671.298 832.814,665.465 842,654.5C 844.587,649.739 846.587,644.739 848,639.5C 850.218,602.309 854.218,565.309 860,528.5C 869.809,454.269 866.809,380.602 851,307.5C 813.498,157.675 717.998,73.1746 564.5,54C 395.992,34.7999 283.158,104.633 226,263.5C 206.285,323.539 196.452,385.206 196.5,448.5C 198.109,482.151 198.609,515.818 198,549.5C 197.098,563.693 195.932,577.86 194.5,592C 196.637,623.287 212.637,643.62 242.5,653C 257.458,654.489 272.458,655.489 287.5,656C 271.251,673.316 259.751,693.482 253,716.5C 252.017,722.009 252.851,727.176 255.5,732C 251.87,746.611 250.037,761.444 250,776.5C 223.586,810.801 219.253,847.801 237,887.5C 248.018,906.619 264.184,919.452 285.5,926C 289.931,932.946 295.931,937.779 303.5,940.5C 303.5,960.167 303.5,979.833 303.5,999.5C 202.167,999.5 100.833,999.5 -0.5,999.5C -0.5,666.167 -0.5,332.833 -0.5,-0.5 Z"/></g>
<g><path style="opacity:1" fill="#030201" d="M 707.5,999.5 C 640.5,999.5 573.5,999.5 506.5,999.5C 506.5,998.5 506.5,997.5 506.5,996.5C 507.496,981.009 507.83,965.342 507.5,949.5C 503.452,949.605 499.452,949.272 495.5,948.5C 489.773,947.279 483.939,945.946 478,944.5C 471.94,947.109 465.773,949.609 459.5,952C 450.404,953.461 441.737,952.294 433.5,948.5C 432.833,948.167 432.167,947.833 431.5,947.5C 422.134,940.946 416.634,931.946 415,920.5C 415.218,903.838 415.718,887.172 416.5,870.5C 405.469,870.74 394.469,870.407 383.5,869.5C 382.791,868.596 381.791,868.263 380.5,868.5C 380.5,872.167 380.5,875.833 380.5,879.5C 379.771,884.293 377.937,888.626 375,892.5C 373.855,910.652 364.688,922.819 347.5,929C 344.629,931.703 341.962,934.536 339.5,937.5C 332.515,941.937 324.848,943.937 316.5,943.5C 316.5,962.167 316.5,980.833 316.5,999.5C 312.167,999.5 307.833,999.5 303.5,999.5C 303.5,979.833 303.5,960.167 303.5,940.5C 295.931,937.779 289.931,932.946 285.5,926C 264.184,919.452 248.018,906.619 237,887.5C 219.253,847.801 223.586,810.801 250,776.5C 250.037,761.444 251.87,746.611 255.5,732C 252.851,727.176 252.017,722.009 253,716.5C 259.751,693.482 271.251,673.316 287.5,656C 272.458,655.489 257.458,654.489 242.5,653C 212.637,643.62 196.637,623.287 194.5,592C 195.932,577.86 197.098,563.693 198,549.5C 198.609,515.818 198.109,482.151 196.5,448.5C 196.452,385.206 206.285,323.539 226,263.5C 283.158,104.633 395.992,34.7999 564.5,54C 717.998,73.1746 813.498,157.675 851,307.5C 866.809,380.602 869.809,454.269 860,528.5C 854.218,565.309 850.218,602.309 848,639.5C 846.587,644.739 844.587,649.739 842,654.5C 832.814,665.465 820.981,671.298 806.5,672C 774.147,671.674 741.814,670.507 709.5,668.5C 706.5,668.833 703.5,669.167 700.5,669.5C 716.656,687.789 729.823,708.123 740,730.5C 742.301,736.893 741.468,742.893 737.5,748.5C 752.701,779.38 758.867,812.046 756,846.5C 752.994,879.903 736.994,904.57 708,920.5C 707.5,946.831 707.333,973.165 707.5,999.5 Z"/></g>
<g><path style="opacity:1" fill="#fdfdfd" d="M 259.5,521.5 C 259.5,518.167 259.5,514.833 259.5,511.5C 262.127,512.092 264.794,512.425 267.5,512.5C 285.309,516.01 297.809,509.343 305,492.5C 306.825,477.981 300.991,467.814 287.5,462C 278.626,459.331 269.626,458.831 260.5,460.5C 260.194,470.25 260.527,479.916 261.5,489.5C 260.89,490.391 260.557,491.391 260.5,492.5C 259.509,486.021 259.176,479.354 259.5,472.5C 260.089,443.48 261.255,414.48 263,385.5C 266.703,362.257 277.536,343.091 295.5,328C 302.337,323.582 309.67,320.248 317.5,318C 336.17,315.333 354.837,312.666 373.5,310C 374.333,309.167 375.167,308.333 376,307.5C 380.71,287.995 386.043,268.662 392,249.5C 394.006,265.553 396.34,281.553 399,297.5C 399.467,302.581 401.634,306.748 405.5,310C 454.218,312.528 502.885,315.528 551.5,319C 554,317.833 555.833,316 557,313.5C 559.333,307.167 561.667,300.833 564,294.5C 567.853,304.39 571.52,314.39 575,324.5C 575.833,325.5 576.667,326.5 577.5,327.5C 607.217,335.846 636.884,344.346 666.5,353C 687.707,360.871 704.874,374.037 718,392.5C 723.153,400.79 725.986,409.79 726.5,419.5C 725.133,456.433 721.3,493.1 715,529.5C 704.122,576.025 676.955,608.859 633.5,628C 593.278,645.722 551.278,656.555 507.5,660.5C 510.638,647.337 512.805,634.004 514,620.5C 516.284,602.8 513.284,586.133 505,570.5C 494.165,556.265 480.665,553.098 464.5,561C 448.972,573.205 437.138,588.372 429,606.5C 428.439,607.022 427.772,607.355 427,607.5C 409.646,603.65 392.312,603.65 375,607.5C 366.434,588.264 352.934,573.43 334.5,563C 316.847,555.574 304.347,560.74 297,578.5C 294.928,584.048 293.262,589.715 292,595.5C 272.724,574.608 261.89,549.941 259.5,521.5 Z"/></g>
<g><path style="opacity:1" fill="#0c0c0c" d="M 309.5,389.5 C 323.088,389.396 336.421,391.229 349.5,395C 353.104,396.334 354.271,398.834 353,402.5C 351.745,404.594 349.912,405.594 347.5,405.5C 340.182,403.936 332.848,402.436 325.5,401C 317.814,400.627 310.148,400.627 302.5,401C 300.556,398.847 300.056,396.347 301,393.5C 303.564,391.376 306.397,390.042 309.5,389.5 Z"/></g>
<g><path style="opacity:1" fill="#0b0b0b" d="M 520.5,403.5 C 532.039,402.869 543.373,404.036 554.5,407C 560.295,407.782 562.462,410.949 561,416.5C 559.874,417.944 558.374,418.61 556.5,418.5C 540.699,414.603 524.699,413.436 508.5,415C 505.034,412.339 504.701,409.339 507.5,406C 511.906,404.959 516.239,404.126 520.5,403.5 Z"/></g>
<g><path style="opacity:1" fill="#050505" d="M 319.5,428.5 C 332.149,426.733 340.649,431.733 345,443.5C 345.934,452.631 345.267,461.631 343,470.5C 337.482,480.672 328.982,484.505 317.5,482C 311,479.5 306.5,475 304,468.5C 303.333,460.5 303.333,452.5 304,444.5C 306.685,436.65 311.852,431.316 319.5,428.5 Z"/></g>
<g><path style="opacity:1" fill="#f2f2f2" d="M 317.5,435.5 C 319.167,435.5 320.833,435.5 322.5,435.5C 322.351,436.552 322.517,437.552 323,438.5C 324.896,439.68 326.396,441.18 327.5,443C 325.085,445.718 322.418,448.218 319.5,450.5C 316.527,448.194 313.86,445.527 311.5,442.5C 314.236,440.766 316.236,438.433 317.5,435.5 Z"/></g>
<g><path style="opacity:1" fill="#060606" d="M 529.5,442.5 C 541.779,441.219 550.279,446.219 555,457.5C 555.597,466.602 554.93,475.602 553,484.5C 546.358,495.393 536.858,498.893 524.5,495C 518.349,491.521 514.516,486.354 513,479.5C 512.557,472.144 512.89,464.811 514,457.5C 516.596,449.657 521.763,444.657 529.5,442.5 Z"/></g>
<g><path style="opacity:1" fill="#eeeeee" d="M 526.5,450.5 C 527.873,450.343 529.207,450.51 530.5,451C 531.961,453.958 533.961,456.458 536.5,458.5C 533.478,461.024 530.644,463.691 528,466.5C 525.618,463.573 523.118,460.739 520.5,458C 522.8,455.698 524.8,453.198 526.5,450.5 Z"/></g>
<g><path style="opacity:1" fill="#eac0bd" d="M 267.5,512.5 C 264.794,512.425 262.127,512.092 259.5,511.5C 259.5,514.833 259.5,518.167 259.5,521.5C 258.167,505.167 258.167,488.833 259.5,472.5C 259.176,479.354 259.509,486.021 260.5,492.5C 260.5,493.833 260.5,495.167 260.5,496.5C 262.144,496.714 263.644,496.38 265,495.5C 266.972,491.057 268.805,486.557 270.5,482C 269.941,479.812 268.607,479.146 266.5,480C 264.677,483.149 263.01,486.316 261.5,489.5C 260.527,479.916 260.194,470.25 260.5,460.5C 269.626,458.831 278.626,459.331 287.5,462C 300.991,467.814 306.825,477.981 305,492.5C 297.809,509.343 285.309,516.01 267.5,512.5 Z"/></g>
<g><path style="opacity:1" fill="#f4bebc" d="M 267.5,512.5 C 266.122,511.766 264.622,511.099 263,510.5C 262.182,507.773 262.348,505.106 263.5,502.5C 268.734,501.38 268.734,500.547 263.5,500C 266.729,499.644 268.229,497.81 268,494.5C 269.309,496.891 270.309,496.891 271,494.5C 271.335,497.19 272.501,497.857 274.5,496.5C 275.568,497.434 276.901,497.768 278.5,497.5C 277.791,498.404 276.791,498.737 275.5,498.5C 275.261,500.467 275.594,502.301 276.5,504C 281.289,504.907 284.289,503.074 285.5,498.5C 284.559,498.511 283.892,498.011 283.5,497C 284.713,493.934 285.547,490.767 286,487.5C 288.509,485.621 288.676,483.288 286.5,480.5C 286.833,479.833 287.167,479.167 287.5,478.5C 285.314,477.779 283.147,477.113 281,476.5C 279.076,480.017 277.409,483.684 276,487.5C 274.703,488.784 273.536,488.617 272.5,487C 273.167,485 273.833,483 274.5,481C 272.514,475.691 270.847,470.357 269.5,465C 270.5,464.5 271.5,464 272.5,463.5C 275.603,463.923 278.436,464.923 281,466.5C 282,466.167 283,465.833 284,465.5C 288.562,467.195 293.062,469.195 297.5,471.5C 308.663,487.172 305.329,498.839 287.5,506.5C 286.754,507.736 286.421,509.07 286.5,510.5C 280.197,511.427 273.863,512.094 267.5,512.5 Z"/></g>
<g><path style="opacity:1" fill="#ebc3bf" d="M 432.5,465.5 C 437.246,469.342 438.746,474.342 437,480.5C 436.535,481.931 435.701,483.097 434.5,484C 423.813,484.543 413.146,484.21 402.5,483C 401.109,481.98 399.609,481.147 398,480.5C 396.73,469.541 401.23,462.041 411.5,458C 418.507,456.438 424.841,457.771 430.5,462C 431.823,462.816 432.489,463.983 432.5,465.5 Z"/></g>
<g><path style="opacity:1" fill="#f5bebb" d="M 432.5,465.5 C 432.5,467.167 432.5,468.833 432.5,470.5C 433.5,470.5 434.5,470.5 435.5,470.5C 435.957,474.584 435.29,478.417 433.5,482C 424.849,481.913 416.182,481.58 407.5,481C 405.333,480.167 403.167,479.333 401,478.5C 400.255,471.326 403.422,466.993 410.5,465.5C 411.128,463.742 412.128,462.242 413.5,461C 420.301,460.639 426.635,462.139 432.5,465.5 Z"/></g>
<g><path style="opacity:1" fill="#1d0d0c" d="M 278.5,497.5 C 276.901,497.768 275.568,497.434 274.5,496.5C 276.037,491.753 277.87,487.087 280,482.5C 282.371,479.627 284.204,479.961 285.5,483.5C 283.531,488.446 281.198,493.113 278.5,497.5 Z"/></g>
<g><path style="opacity:1" fill="#180c0a" d="M 260.5,492.5 C 260.557,491.391 260.89,490.391 261.5,489.5C 263.01,486.316 264.677,483.149 266.5,480C 268.607,479.146 269.941,479.812 270.5,482C 268.805,486.557 266.972,491.057 265,495.5C 263.644,496.38 262.144,496.714 260.5,496.5C 260.5,495.167 260.5,493.833 260.5,492.5 Z"/></g>
<g><path style="opacity:1" fill="#f0c0bb" d="M 579.5,479.5 C 591.854,478.608 603.187,481.441 613.5,488C 624.683,496.59 627.516,507.423 622,520.5C 615.366,528.307 606.866,532.807 596.5,534C 580.123,536.7 566.289,532.2 555,520.5C 545.794,505.824 548.627,493.99 563.5,485C 568.758,482.597 574.091,480.764 579.5,479.5 Z"/></g>
<g><path style="opacity:1" fill="#190d09" d="M 603.5,498.5 C 607.071,498.408 608.238,500.074 607,503.5C 605.607,507.286 603.941,510.952 602,514.5C 600.644,515.38 599.144,515.714 597.5,515.5C 598.638,509.552 600.638,503.885 603.5,498.5 Z"/></g>
<g><path style="opacity:1" fill="#180b07" d="M 588.5,497.5 C 589.833,497.5 591.167,497.5 592.5,497.5C 591.699,503.431 590.032,509.098 587.5,514.5C 585.833,514.5 584.167,514.5 582.5,514.5C 583.702,508.56 585.702,502.893 588.5,497.5 Z"/></g>
<g><path style="opacity:1" fill="#1d0c0a" d="M 574.5,496.5 C 575.496,496.414 576.329,496.748 577,497.5C 576.718,502.767 575.218,507.767 572.5,512.5C 568.986,514.265 567.486,513.265 568,509.5C 570.083,505.058 572.25,500.724 574.5,496.5 Z"/></g>
<g><path style="opacity:1" fill="#040403" d="M 405.5,521.5 C 421.806,520.107 437.473,522.607 452.5,529C 456.274,530.302 459.441,532.469 462,535.5C 461.034,550.147 453.2,558.98 438.5,562C 419.299,566.911 402.799,562.411 389,548.5C 384.683,543.219 383.017,537.219 384,530.5C 384.833,529.667 385.667,528.833 386.5,528C 392.789,525.354 399.122,523.188 405.5,521.5 Z"/></g>
<g><path style="opacity:1" fill="#eabb68" d="M 489.5,573.5 C 494.27,577.363 497.27,582.363 498.5,588.5C 497.883,588.611 497.383,588.944 497,589.5C 495.111,581.791 490.611,576.458 483.5,573.5C 479.862,574.182 476.195,574.682 472.5,575C 470.023,576.375 469.189,578.209 470,580.5C 465.691,583.041 461.691,586.041 458,589.5C 456.032,592.813 454.032,596.146 452,599.5C 448.877,602.449 446.044,605.449 443.5,608.5C 446.254,601.314 450.254,594.981 455.5,589.5C 461.356,583.809 467.356,578.309 473.5,573C 478.93,570.852 484.264,571.019 489.5,573.5 Z"/></g>
<g><path style="opacity:1" fill="#fbbc51" d="M 498.5,588.5 C 501.354,599.96 502.188,611.626 501,623.5C 499.581,636.095 497.081,648.428 493.5,660.5C 498.17,669.178 502.336,678.178 506,687.5C 508.143,694.733 509.643,702.066 510.5,709.5C 506.687,708.84 503.021,707.674 499.5,706C 494.5,705.333 489.5,705.333 484.5,706C 472.769,709.621 461.103,713.621 449.5,718C 443.851,720.039 438.518,722.539 433.5,725.5C 431.801,725.34 430.134,725.506 428.5,726C 421.441,729.098 414.107,731.265 406.5,732.5C 406.817,727.328 406.151,722.328 404.5,717.5C 403.5,717.5 402.5,717.5 401.5,717.5C 390.702,708.349 379.036,707.183 366.5,714C 359.687,718.942 357.354,725.442 359.5,733.5C 357.146,733.162 354.813,732.662 352.5,732C 334.062,722.851 314.728,715.851 294.5,711C 293.549,707.943 293.216,704.777 293.5,701.5C 293.232,699.901 293.566,698.568 294.5,697.5C 298.24,689.288 301.24,680.622 303.5,671.5C 306.586,670.346 307.919,668.012 307.5,664.5C 305.288,641.193 304.955,617.86 306.5,594.5C 306.5,594.167 306.5,593.833 306.5,593.5C 308.543,589.45 311.21,585.783 314.5,582.5C 314.207,577.693 316.374,575.026 321,574.5C 323.137,575.077 325.304,575.41 327.5,575.5C 328.924,579.047 331.591,580.88 335.5,581C 337.193,583.69 339.527,585.69 342.5,587C 346.958,593.246 351.958,599.079 357.5,604.5C 359.19,606.504 360.524,608.837 361.5,611.5C 357.927,612.776 354.927,614.776 352.5,617.5C 349.951,617.937 348.618,619.437 348.5,622C 348.549,626.352 349.882,630.185 352.5,633.5C 352.833,633.333 353.167,633.167 353.5,633C 351.688,631.373 351.521,629.873 353,628.5C 354.261,628.759 355.261,629.426 356,630.5C 358.73,630.155 361.563,629.989 364.5,630C 368.132,628.516 371.466,626.516 374.5,624C 391.696,619.576 409.029,619.409 426.5,623.5C 430.411,623.747 433.744,625.247 436.5,628C 450.245,631.59 455.078,626.757 451,613.5C 448.619,612.565 446.119,612.232 443.5,612.5C 443.5,611.167 443.5,609.833 443.5,608.5C 446.044,605.449 448.877,602.449 452,599.5C 454.032,596.146 456.032,592.813 458,589.5C 461.691,586.041 465.691,583.041 470,580.5C 469.189,578.209 470.023,576.375 472.5,575C 476.195,574.682 479.862,574.182 483.5,573.5C 490.611,576.458 495.111,581.791 497,589.5C 497.383,588.944 497.883,588.611 498.5,588.5 Z"/></g>
<g><path style="opacity:1" fill="#d1b180" d="M 489.5,573.5 C 484.264,571.019 478.93,570.852 473.5,573C 467.356,578.309 461.356,583.809 455.5,589.5C 460.372,580.797 467.372,574.297 476.5,570C 481.556,568.881 485.89,570.048 489.5,573.5 Z"/></g>
<g><path style="opacity:1" fill="#e4b572" d="M 327.5,575.5 C 325.304,575.41 323.137,575.077 321,574.5C 316.374,575.026 314.207,577.693 314.5,582.5C 311.21,585.783 308.543,589.45 306.5,593.5C 307.651,586.695 310.318,580.529 314.5,575C 319.051,572.865 323.385,573.032 327.5,575.5 Z"/></g>
<g><path style="opacity:1" fill="#dfb66b" d="M 327.5,575.5 C 330.016,575.755 332.35,576.589 334.5,578C 337.167,580 339.833,582 342.5,584C 348.902,589.888 353.902,596.722 357.5,604.5C 351.958,599.079 346.958,593.246 342.5,587C 339.527,585.69 337.193,583.69 335.5,581C 331.591,580.88 328.924,579.047 327.5,575.5 Z"/></g>
<g><path style="opacity:1" fill="#b79465" d="M 415.5,619.5 C 409.319,619.471 403.153,619.138 397,618.5C 391.171,619.25 385.338,619.916 379.5,620.5C 380.263,619.732 381.263,619.232 382.5,619C 393.69,616.847 404.69,617.014 415.5,619.5 Z"/></g>
<g><path style="opacity:1" fill="#f3ba5e" d="M 352.5,617.5 C 352.107,620.513 352.774,623.18 354.5,625.5C 355.514,626.765 357.014,627.431 359,627.5C 363.168,627.615 366.668,626.282 369.5,623.5C 372.452,621.59 375.786,620.59 379.5,620.5C 385.338,619.916 391.171,619.25 397,618.5C 403.153,619.138 409.319,619.471 415.5,619.5C 416.167,619.5 416.833,619.5 417.5,619.5C 420.322,621.022 423.322,622.355 426.5,623.5C 409.029,619.409 391.696,619.576 374.5,624C 371.466,626.516 368.132,628.516 364.5,630C 361.563,629.989 358.73,630.155 356,630.5C 355.261,629.426 354.261,628.759 353,628.5C 351.521,629.873 351.688,631.373 353.5,633C 353.167,633.167 352.833,633.333 352.5,633.5C 349.882,630.185 348.549,626.352 348.5,622C 348.618,619.437 349.951,617.937 352.5,617.5 Z"/></g>
<g><path style="opacity:1" fill="#d2ab81" d="M 369.5,623.5 C 366.668,626.282 363.168,627.615 359,627.5C 357.014,627.431 355.514,626.765 354.5,625.5C 355.908,626.061 357.408,626.395 359,626.5C 362.541,625.646 366.041,624.646 369.5,623.5 Z"/></g>
<g><path style="opacity:1" fill="#e0b46e" d="M 443.5,608.5 C 443.5,609.833 443.5,611.167 443.5,612.5C 446.119,612.232 448.619,612.565 451,613.5C 455.078,626.757 450.245,631.59 436.5,628C 433.744,625.247 430.411,623.747 426.5,623.5C 423.322,622.355 420.322,621.022 417.5,619.5C 425.212,620.348 432.545,622.515 439.5,626C 447.667,627.833 450.833,624.667 449,616.5C 446.96,614.647 444.627,613.314 442,612.5C 441.652,610.86 442.152,609.527 443.5,608.5 Z"/></g>
<g><path style="opacity:1" fill="#fcfcfc" d="M 624.5,654.5 C 650.206,652.342 672.039,660.342 690,678.5C 705.334,695.526 717.334,714.526 726,735.5C 716.662,731.201 706.829,729.534 696.5,730.5C 671.638,729.704 648.305,735.204 626.5,747C 621.211,750.62 616.211,754.62 611.5,759C 608.716,759.892 606.05,761.058 603.5,762.5C 601.099,748.277 600.099,733.943 600.5,719.5C 599.33,698.521 602.33,678.187 609.5,658.5C 614.589,657.052 619.589,655.719 624.5,654.5 Z"/></g>
<g><path style="opacity:1" fill="#f0c05e" d="M 405.5,681.5 C 408.385,681.806 411.052,681.473 413.5,680.5C 415.167,679.5 416.5,678.167 417.5,676.5C 419.19,666.692 414.857,662.525 404.5,664C 399.19,669.904 399.19,675.737 404.5,681.5C 400.359,680.191 398.359,677.357 398.5,673C 397.655,666.371 400.322,662.204 406.5,660.5C 410.611,660.919 414.611,661.752 418.5,663C 419,663.5 419.5,664 420,664.5C 420.667,668.5 420.667,672.5 420,676.5C 419.208,678.587 418.041,680.421 416.5,682C 412.642,682.81 408.976,682.643 405.5,681.5 Z"/></g>
<g><path style="opacity:1" fill="#f0bf65" d="M 362.5,681.5 C 362.389,682.117 362.056,682.617 361.5,683C 359.1,683.186 356.766,683.686 354.5,684.5C 354.833,685.167 355.167,685.833 355.5,686.5C 354.874,692.298 354.207,697.964 353.5,703.5C 353.829,697.463 353.496,691.463 352.5,685.5C 351.274,683.722 349.607,682.722 347.5,682.5C 342.244,680.429 337.744,681.429 334,685.5C 332.59,691.379 332.09,697.379 332.5,703.5C 332.5,704.5 332.5,705.5 332.5,706.5C 331.245,698.308 331.245,689.975 332.5,681.5C 335.055,680.587 337.721,679.92 340.5,679.5C 343.905,680.195 347.238,680.195 350.5,679.5C 349.389,678.389 348.722,677.055 348.5,675.5C 349.163,672.194 349.663,668.861 350,665.5C 365.713,657.753 372.546,662.42 370.5,679.5C 367.996,680.639 365.33,681.306 362.5,681.5 Z"/></g>
<g><path style="opacity:1" fill="#d8b174" d="M 306.5,594.5 C 304.955,617.86 305.288,641.193 307.5,664.5C 307.919,668.012 306.586,670.346 303.5,671.5C 304.971,668.938 305.638,666.104 305.5,663C 303.744,644.198 303.244,625.365 304,606.5C 304.335,602.264 305.168,598.264 306.5,594.5 Z"/></g>
<g><path style="opacity:1" fill="#f7f7f7" d="M 549.5,667.5 C 551.857,667.337 554.19,667.503 556.5,668C 548.431,682.237 537.431,693.737 523.5,702.5C 521.599,692.631 518.599,683.131 514.5,674C 526.386,672.244 538.052,670.077 549.5,667.5 Z"/></g>
<g><path style="opacity:1" fill="#f9f6e2" d="M 417.5,676.5 C 416.5,678.167 415.167,679.5 413.5,680.5C 403.988,681.807 400.821,677.807 404,668.5C 408.46,664.842 412.793,665.176 417,669.5C 417.497,671.81 417.663,674.143 417.5,676.5 Z"/></g>
<g><path style="opacity:1" fill="#fdf0c6" d="M 362.5,664.5 C 366.671,665.002 368.671,667.336 368.5,671.5C 368.485,673.634 367.985,675.634 367,677.5C 365.333,678.733 363.833,680.067 362.5,681.5C 352.425,682.257 348.759,677.757 351.5,668C 354.288,663.687 357.954,662.52 362.5,664.5 Z"/></g>
<g><path style="opacity:1" fill="#faf6e2" d="M 362.5,664.5 C 368.501,670.613 367.835,675.613 360.5,679.5C 358.03,677.63 355.364,675.963 352.5,674.5C 355.852,672.534 357.352,669.534 357,665.5C 358.699,664.594 360.533,664.261 362.5,664.5 Z"/></g>
<g><path style="opacity:1" fill="#fae5a5" d="M 417.5,676.5 C 417.663,674.143 417.497,671.81 417,669.5C 412.793,665.176 408.46,664.842 404,668.5C 400.821,677.807 403.988,681.807 413.5,680.5C 411.052,681.473 408.385,681.806 405.5,681.5C 405.167,681.5 404.833,681.5 404.5,681.5C 399.19,675.737 399.19,669.904 404.5,664C 414.857,662.525 419.19,666.692 417.5,676.5 Z"/></g>
<g><path style="opacity:1" fill="#0f0604" d="M 436.5,681.5 C 437.504,682.683 438.338,684.016 439,685.5C 439.76,692.55 439.593,699.55 438.5,706.5C 433.262,710.375 428.095,710.375 423,706.5C 421.58,699.95 421.08,693.284 421.5,686.5C 424.56,679.291 429.56,677.624 436.5,681.5 Z"/></g>
<g><path style="opacity:1" fill="#0e0503" d="M 347.5,682.5 C 348.836,684.01 350.003,685.677 351,687.5C 351.991,694.314 351.491,700.98 349.5,707.5C 346.03,710.394 342.03,711.227 337.5,710C 335.174,708.195 333.508,706.028 332.5,703.5C 332.09,697.379 332.59,691.379 334,685.5C 337.744,681.429 342.244,680.429 347.5,682.5 Z"/></g>
<g><path style="opacity:1" fill="#d3cfd1" d="M 425.5,685.5 C 430.984,687.076 431.484,689.409 427,692.5C 425.647,691.315 424.48,689.981 423.5,688.5C 424.612,687.735 425.279,686.735 425.5,685.5 Z"/></g>
<g><path style="opacity:1" fill="#d8af6b" d="M 436.5,681.5 C 438.044,681.703 439.378,682.37 440.5,683.5C 441.664,689.807 441.831,696.141 441,702.5C 440.8,704.32 439.966,705.653 438.5,706.5C 439.593,699.55 439.76,692.55 439,685.5C 438.338,684.016 437.504,682.683 436.5,681.5 Z"/></g>
<g><path style="opacity:1" fill="#d4b280" d="M 303.5,671.5 C 301.24,680.622 298.24,689.288 294.5,697.5C 295.978,688.225 298.978,679.559 303.5,671.5 Z"/></g>
<g><path style="opacity:1" fill="#cbcbc7" d="M 338.5,685.5 C 343.128,687.263 343.461,689.596 339.5,692.5C 338.019,691.52 336.685,690.353 335.5,689C 336.71,687.961 337.71,686.794 338.5,685.5 Z"/></g>
<g><path style="opacity:1" fill="#f9f9f8" d="M 554.5,694.5 C 555.097,694.735 555.43,695.235 555.5,696C 550.966,714.634 547.632,733.467 545.5,752.5C 538.52,753.165 531.52,753.498 524.5,753.5C 524.911,741.489 525.577,729.489 526.5,717.5C 537.041,711.292 546.374,703.625 554.5,694.5 Z"/></g>
<g><path style="opacity:1" fill="#efefef" d="M 283.5,682.5 C 284.097,682.735 284.43,683.235 284.5,684C 280.175,696.113 277.842,708.613 277.5,721.5C 273.774,721.823 270.107,721.489 266.5,720.5C 270.634,707.078 276.301,694.411 283.5,682.5 Z"/></g>
<g><path style="opacity:1" fill="#c8a262" d="M 421.5,686.5 C 421.08,693.284 421.58,699.95 423,706.5C 428.095,710.375 433.262,710.375 438.5,706.5C 437.075,710.304 434.242,711.971 430,711.5C 421.686,709.734 418.519,704.567 420.5,696C 420.502,692.648 420.835,689.482 421.5,686.5 Z"/></g>
<g><path style="opacity:1" fill="#dab370" d="M 347.5,682.5 C 349.607,682.722 351.274,683.722 352.5,685.5C 353.496,691.463 353.829,697.463 353.5,703.5C 351.153,711.806 345.819,714.472 337.5,711.5C 335.506,710.173 333.839,708.506 332.5,706.5C 332.5,705.5 332.5,704.5 332.5,703.5C 333.508,706.028 335.174,708.195 337.5,710C 342.03,711.227 346.03,710.394 349.5,707.5C 351.491,700.98 351.991,694.314 351,687.5C 350.003,685.677 348.836,684.01 347.5,682.5 Z"/></g>
<g><path style="opacity:1" fill="#090403" d="M 401.5,717.5 C 405.944,723.053 406.611,729.053 403.5,735.5C 400.053,741.064 395.053,744.397 388.5,745.5C 388.216,748.777 388.549,751.943 389.5,755C 404.516,759.845 418.516,757.845 431.5,749C 438.095,744.409 444.095,739.076 449.5,733C 456.885,732.053 459.719,735.22 458,742.5C 456.426,743.984 455.093,745.651 454,747.5C 444.774,768.969 432.774,788.635 418,806.5C 417.566,829.6 405.899,842.6 383,845.5C 364.601,844.1 353.268,834.433 349,816.5C 348.667,811.833 348.333,807.167 348,802.5C 334.807,782.945 324.974,761.779 318.5,739C 320.252,732.44 324.085,730.94 330,734.5C 333.66,747.499 342.16,754.665 355.5,756C 361.891,756.758 368.224,756.424 374.5,755C 375.451,751.943 375.784,748.777 375.5,745.5C 368.985,744.411 363.985,741.078 360.5,735.5C 360.672,734.508 360.338,733.842 359.5,733.5C 357.354,725.442 359.687,718.942 366.5,714C 379.036,707.183 390.702,708.349 401.5,717.5 Z"/></g>
<g><path style="opacity:1" fill="#faf0c1" d="M 293.5,701.5 C 293.216,704.777 293.549,707.943 294.5,711C 314.728,715.851 334.062,722.851 352.5,732C 354.813,732.662 357.146,733.162 359.5,733.5C 360.338,733.842 360.672,734.508 360.5,735.5C 354.96,735.7 349.96,734.2 345.5,731C 343.5,730.667 341.5,730.333 339.5,730C 338.421,727.957 336.754,726.624 334.5,726C 330.277,726.028 326.611,724.695 323.5,722C 317.828,720.657 312.328,718.823 307,716.5C 303.529,717.455 300.029,717.622 296.5,717C 295.167,716 295.167,715 296.5,714C 294.97,712.88 293.303,712.046 291.5,711.5C 292.01,708.017 292.677,704.684 293.5,701.5 Z"/></g>
<g><path style="opacity:1" fill="#fcf6da" d="M 510.5,710.5 C 517.685,757.446 504.352,797.612 470.5,831C 435.464,859.576 397.13,864.91 355.5,847C 311.859,821.299 290.192,782.966 290.5,732C 290.558,725.133 290.891,718.3 291.5,711.5C 293.303,712.046 294.97,712.88 296.5,714C 295.167,715 295.167,716 296.5,717C 300.029,717.622 303.529,717.455 307,716.5C 312.328,718.823 317.828,720.657 323.5,722C 326.611,724.695 330.277,726.028 334.5,726C 336.754,726.624 338.421,727.957 339.5,730C 341.5,730.333 343.5,730.667 345.5,731C 349.96,734.2 354.96,735.7 360.5,735.5C 363.985,741.078 368.985,744.411 375.5,745.5C 375.784,748.777 375.451,751.943 374.5,755C 368.224,756.424 361.891,756.758 355.5,756C 342.16,754.665 333.66,747.499 330,734.5C 324.085,730.94 320.252,732.44 318.5,739C 324.974,761.779 334.807,782.945 348,802.5C 348.333,807.167 348.667,811.833 349,816.5C 353.268,834.433 364.601,844.1 383,845.5C 405.899,842.6 417.566,829.6 418,806.5C 432.774,788.635 444.774,768.969 454,747.5C 455.093,745.651 456.426,743.984 458,742.5C 459.719,735.22 456.885,732.053 449.5,733C 444.095,739.076 438.095,744.409 431.5,749C 418.516,757.845 404.516,759.845 389.5,755C 388.549,751.943 388.216,748.777 388.5,745.5C 395.053,744.397 400.053,741.064 403.5,735.5C 414.16,733.637 424.16,730.304 433.5,725.5C 441.777,723.132 449.777,720.299 457.5,717C 462.686,715.215 468.02,714.382 473.5,714.5C 473.33,713.178 473.663,712.011 474.5,711C 476.899,710.289 479.232,710.456 481.5,711.5C 490.273,707.694 499.106,707.694 508,711.5C 509.07,711.472 509.903,711.139 510.5,710.5 Z"/></g>
<g><path style="opacity:1" fill="#feeeb6" d="M 510.5,709.5 C 510.5,709.833 510.5,710.167 510.5,710.5C 509.903,711.139 509.07,711.472 508,711.5C 499.106,707.694 490.273,707.694 481.5,711.5C 479.232,710.456 476.899,710.289 474.5,711C 473.663,712.011 473.33,713.178 473.5,714.5C 468.02,714.382 462.686,715.215 457.5,717C 449.777,720.299 441.777,723.132 433.5,725.5C 438.518,722.539 443.851,720.039 449.5,718C 461.103,713.621 472.769,709.621 484.5,706C 489.5,705.333 494.5,705.333 499.5,706C 503.021,707.674 506.687,708.84 510.5,709.5 Z"/></g>
<g><path style="opacity:1" fill="#f4d99b" d="M 401.5,717.5 C 402.5,717.5 403.5,717.5 404.5,717.5C 406.151,722.328 406.817,727.328 406.5,732.5C 414.107,731.265 421.441,729.098 428.5,726C 430.134,725.506 431.801,725.34 433.5,725.5C 424.16,730.304 414.16,733.637 403.5,735.5C 406.611,729.053 405.944,723.053 401.5,717.5 Z"/></g>
<g><path style="opacity:1" fill="#fdfdfd" d="M 678.5,744.5 C 689.505,744.333 700.505,744.5 711.5,745C 714.5,746 717.5,747 720.5,748C 723.037,750.906 725.204,754.073 727,757.5C 741.714,789.495 746.047,822.829 740,857.5C 734.672,881.817 720.839,899.317 698.5,910C 675.787,919.595 652.121,925.595 627.5,928C 606.526,930.104 585.526,930.771 564.5,930C 550.222,933.741 535.722,935.908 521,936.5C 509.02,936.78 497.354,935.114 486,931.5C 486.009,927.446 486.676,923.446 488,919.5C 488.157,905.121 488.99,890.788 490.5,876.5C 489.334,865.666 492.001,855.832 498.5,847C 506.27,846.514 513.603,844.514 520.5,841C 523.439,836.982 523.105,833.315 519.5,830C 511.5,828.168 504.5,824.501 498.5,819C 502.624,813.923 506.124,808.423 509,802.5C 509.75,801.874 510.584,801.374 511.5,801C 527.651,798.491 542.984,800.824 557.5,808C 560.833,810 563.5,812.667 565.5,816C 570.835,818.112 575.169,816.778 578.5,812C 601.814,805.252 625.481,800.585 649.5,798C 651.504,795.159 652.004,791.993 651,788.5C 650.097,787.299 648.931,786.465 647.5,786C 640.148,785.418 632.815,785.585 625.5,786.5C 624.798,781.026 623.465,775.693 621.5,770.5C 629.286,762.099 638.619,755.933 649.5,752C 659.095,748.686 668.762,746.186 678.5,744.5 Z"/></g>
<g><path style="opacity:1" fill="#5e5e5e" d="M 265.5,759.5 C 267.156,761.06 269.156,762.06 271.5,762.5C 269.167,762.5 266.833,762.5 264.5,762.5C 264.263,761.209 264.596,760.209 265.5,759.5 Z"/></g>
<g><path style="opacity:1" fill="#efeeec" d="M 343.5,768.5 C 344.919,767.549 346.585,767.216 348.5,767.5C 348.664,770.187 348.497,772.854 348,775.5C 346.476,773.102 344.976,770.769 343.5,768.5 Z"/></g>
<g><path style="opacity:1" fill="#fbfbfb" d="M 271.5,762.5 C 269.156,762.06 267.156,761.06 265.5,759.5C 266.068,751.456 267.068,743.456 268.5,735.5C 271.167,735.5 273.833,735.5 276.5,735.5C 276.821,746.988 278.321,758.321 281,769.5C 284.324,780.47 287.824,791.304 291.5,802C 290.731,806.713 289.231,811.213 287,815.5C 285.611,822.109 284.611,828.776 284,835.5C 283.014,859.878 281.681,884.212 280,908.5C 257.552,897.993 244.552,880.326 241,855.5C 237.205,826.889 245.039,802.055 264.5,781C 267.667,778.5 270.833,776 274,773.5C 276.578,768.934 275.744,765.267 271.5,762.5 Z"/></g>
<g><path style="opacity:1" fill="#e7e5e3" d="M 422.5,767.5 C 423.748,768.334 424.415,769.667 424.5,771.5C 423.884,776.297 421.717,780.297 418,783.5C 417.501,778.845 417.334,774.179 417.5,769.5C 419.553,769.598 421.22,768.931 422.5,767.5 Z"/></g>
<g><path style="opacity:1" fill="#210201" d="M 393.5,769.5 C 398.691,769.058 403.691,769.558 408.5,771C 407.167,771.667 407.167,772.333 408.5,773C 407.551,773.617 406.718,773.451 406,772.5C 405.831,787.672 405.331,802.672 404.5,817.5C 404.83,801.658 404.496,785.991 403.5,770.5C 399.958,770.813 396.625,770.479 393.5,769.5 Z"/></g>
<g><path style="opacity:1" fill="#bb4d5b" d="M 393.5,769.5 C 396.625,770.479 399.958,770.813 403.5,770.5C 403.667,785.837 403.5,801.17 403,816.5C 402.059,818.727 400.892,820.727 399.5,822.5C 398.89,823.391 398.557,824.391 398.5,825.5C 398.167,825.5 397.833,825.5 397.5,825.5C 394.192,828.26 390.526,830.26 386.5,831.5C 375.544,832.277 368.044,827.61 364,817.5C 362.562,801.557 362.062,785.557 362.5,769.5C 368.968,769.407 375.301,768.407 381.5,766.5C 385.435,767.817 389.435,768.817 393.5,769.5 Z"/></g>
<g><path style="opacity:1" fill="#e44159" d="M 399.5,822.5 C 398.167,822.5 396.833,822.5 395.5,822.5C 395.357,826.305 393.357,827.971 389.5,827.5C 383.872,827.065 378.205,826.899 372.5,827C 368.724,824.017 366.224,820.184 365,815.5C 364.5,800.504 364.333,785.504 364.5,770.5C 370.623,770.823 376.623,770.157 382.5,768.5C 387.678,770.294 393.011,771.461 398.5,772C 399.579,772.956 400.745,773.789 402,774.5C 402.667,788.167 402.667,801.833 402,815.5C 400.097,817.441 399.264,819.774 399.5,822.5 Z"/></g>
<g><path style="opacity:1" fill="#50060d" d="M 403.5,770.5 C 404.496,785.991 404.83,801.658 404.5,817.5C 403.485,820.846 401.485,823.513 398.5,825.5C 398.557,824.391 398.89,823.391 399.5,822.5C 400.892,820.727 402.059,818.727 403,816.5C 403.5,801.17 403.667,785.837 403.5,770.5 Z"/></g>
<g><path style="opacity:1" fill="#d5324e" d="M 378.5,770.5 C 382.534,770.505 386.534,770.838 390.5,771.5C 389.726,787.809 389.226,804.142 389,820.5C 385.577,822.973 382.077,822.973 378.5,820.5C 377.902,819.205 377.402,817.872 377,816.5C 376.833,809 376.667,801.5 376.5,794C 376.533,785.933 377.199,778.1 378.5,770.5 Z"/></g>
<g><path style="opacity:1" fill="#c5a476" d="M 306.5,823.5 C 306.5,823.833 306.5,824.167 306.5,824.5C 305.18,823.058 303.514,822.392 301.5,822.5C 300.495,828.51 299.495,834.51 298.5,840.5C 298.167,840.5 297.833,840.5 297.5,840.5C 297.524,832.214 299.024,824.214 302,816.5C 303.723,818.717 305.223,821.05 306.5,823.5 Z"/></g>
<g><path style="opacity:1" fill="#41030c" d="M 397.5,825.5 C 395.248,829.798 391.581,831.798 386.5,831.5C 390.526,830.26 394.192,828.26 397.5,825.5 Z"/></g>
<g><path style="opacity:1" fill="#e1b77a" d="M 484.5,842.5 C 483.211,841.499 481.878,841.666 480.5,843C 476.531,846.296 472.531,849.629 468.5,853C 464.785,854.295 461.118,855.462 457.5,856.5C 466.478,851.33 474.811,845.163 482.5,838C 483.744,837.544 484.577,838.044 485,839.5C 485.74,840.749 485.573,841.749 484.5,842.5 Z"/></g>
<g><path style="opacity:1" fill="#d9b87f" d="M 297.5,840.5 C 297.833,840.5 298.167,840.5 298.5,840.5C 298.667,851.505 298.5,862.505 298,873.5C 297.79,875.058 297.29,876.391 296.5,877.5C 296.464,868.815 296.797,860.149 297.5,851.5C 297.5,847.833 297.5,844.167 297.5,840.5 Z"/></g>
<g><path style="opacity:1" fill="#fabc53" d="M 484.5,842.5 C 480.607,849.712 477.774,857.378 476,865.5C 475.034,883.488 474.534,901.488 474.5,919.5C 472.833,926.155 469.166,931.489 463.5,935.5C 461.953,930.946 460.953,926.279 460.5,921.5C 458.641,917.074 455.308,915.574 450.5,917C 447.679,919.141 446.346,921.975 446.5,925.5C 445.834,928.689 445.167,932.023 444.5,935.5C 443.368,933.306 442.701,930.973 442.5,928.5C 445.681,918.493 442.181,913.159 432,912.5C 431.84,897.403 432.674,882.403 434.5,867.5C 440.74,865.942 446.74,863.775 452.5,861C 454.24,859.483 455.906,857.983 457.5,856.5C 461.118,855.462 464.785,854.295 468.5,853C 472.531,849.629 476.531,846.296 480.5,843C 481.878,841.666 483.211,841.499 484.5,842.5 Z"/></g>
<g><path style="opacity:1" fill="#fbbc52" d="M 306.5,824.5 C 311.119,830.622 316.286,836.288 322,841.5C 322.494,843.134 322.66,844.801 322.5,846.5C 328.008,850.305 334.008,853.305 340.5,855.5C 340.75,875.58 339.584,895.58 337,915.5C 335.117,916.653 334.284,918.319 334.5,920.5C 332.278,920.178 330.444,920.845 329,922.5C 328.649,917.802 328.149,913.136 327.5,908.5C 324.998,908.251 322.498,907.917 320,907.5C 318.319,907.608 317.152,908.275 316.5,909.5C 316.027,910.906 315.027,911.573 313.5,911.5C 311.023,909.575 308.357,907.909 305.5,906.5C 301.112,905.943 297.945,907.61 296,911.5C 295.5,902.173 295.334,892.839 295.5,883.5C 296.461,881.735 296.795,879.735 296.5,877.5C 297.29,876.391 297.79,875.058 298,873.5C 298.5,862.505 298.667,851.505 298.5,840.5C 299.495,834.51 300.495,828.51 301.5,822.5C 303.514,822.392 305.18,823.058 306.5,824.5 Z"/></g>
<g><path style="opacity:1" fill="#cfcccb" d="M 355.5,861.5 C 364.531,863.704 364.531,864.704 355.5,864.5C 355.5,863.5 355.5,862.5 355.5,861.5 Z"/></g>
<g><path style="opacity:1" fill="#302016" d="M 297.5,851.5 C 296.797,860.149 296.464,868.815 296.5,877.5C 296.795,879.735 296.461,881.735 295.5,883.5C 295.334,874.494 295.5,865.494 296,856.5C 296.198,854.618 296.698,852.952 297.5,851.5 Z"/></g>
<g><path style="opacity:1" fill="#d1ad7a" d="M 457.5,856.5 C 455.906,857.983 454.24,859.483 452.5,861C 446.74,863.775 440.74,865.942 434.5,867.5C 433.206,869.048 432.539,871.048 432.5,873.5C 431.213,887.138 430.546,900.805 430.5,914.5C 433.059,914.198 435.393,914.532 437.5,915.5C 433.727,914.822 430.894,916.156 429,919.5C 429.229,901.842 429.729,884.175 430.5,866.5C 439.9,864.234 448.9,860.9 457.5,856.5 Z"/></g>
<g><path style="opacity:1" fill="#fcf6d9" d="M 383.5,869.5 C 394.469,870.407 405.469,870.74 416.5,870.5C 415.718,887.172 415.218,903.838 415,920.5C 416.634,931.946 422.134,940.946 431.5,947.5C 427.307,947.681 423.641,949.181 420.5,952C 418.787,953.378 417.453,955.045 416.5,957C 394.099,968.626 373.099,966.792 353.5,951.5C 349.425,946.758 345.091,942.425 340.5,938.5C 340.5,937.833 340.167,937.5 339.5,937.5C 341.962,934.536 344.629,931.703 347.5,929C 364.688,922.819 373.855,910.652 375,892.5C 377.937,888.626 379.771,884.293 380.5,879.5C 380.881,875.881 381.881,872.548 383.5,869.5 Z"/></g>
<g><path style="opacity:1" fill="#595851" d="M 383.5,869.5 C 381.881,872.548 380.881,875.881 380.5,879.5C 380.5,875.833 380.5,872.167 380.5,868.5C 381.791,868.263 382.791,868.596 383.5,869.5 Z"/></g>
<g><path style="opacity:1" fill="#f1eeef" d="M 355.5,878.5 C 359.226,878.177 362.893,878.511 366.5,879.5C 365.872,881.258 364.872,882.758 363.5,884C 360.832,884.567 358.166,885.067 355.5,885.5C 355.5,883.167 355.5,880.833 355.5,878.5 Z"/></g>
<g><path style="opacity:1" fill="#e9b66b" d="M 434.5,867.5 C 432.674,882.403 431.84,897.403 432,912.5C 442.181,913.159 445.681,918.493 442.5,928.5C 442.701,930.973 443.368,933.306 444.5,935.5C 445.167,932.023 445.834,928.689 446.5,925.5C 446.187,929.042 446.521,932.375 447.5,935.5C 447.5,936.5 447.5,937.5 447.5,938.5C 444.762,939.035 442.928,938.035 442,935.5C 441.281,930.799 441.447,926.133 442.5,921.5C 441.566,918.898 439.899,916.898 437.5,915.5C 435.393,914.532 433.059,914.198 430.5,914.5C 430.546,900.805 431.213,887.138 432.5,873.5C 432.539,871.048 433.206,869.048 434.5,867.5 Z"/></g>
<g><path style="opacity:1" fill="#f8f5f5" d="M 354.5,899.5 C 361.811,899.668 362.145,901.668 355.5,905.5C 354.534,903.604 354.201,901.604 354.5,899.5 Z"/></g>
<g><path style="opacity:1" fill="#d4ab73" d="M 305.5,906.5 C 308.357,907.909 311.023,909.575 313.5,911.5C 312.627,915.768 312.294,920.102 312.5,924.5C 313.331,929.145 312.164,930.145 309,927.5C 308.308,922.638 308.475,917.805 309.5,913C 308.795,910.458 307.461,908.292 305.5,906.5 Z"/></g>
<g><path style="opacity:1" fill="#e1b35f" d="M 306.5,823.5 C 316.655,835.99 328.655,846.323 342.5,854.5C 341.718,874.875 340.552,895.208 339,915.5C 336.359,920.641 332.526,924.641 327.5,927.5C 326.808,926.975 326.308,926.308 326,925.5C 325.774,921.113 325.274,916.779 324.5,912.5C 322.422,910.014 319.755,909.014 316.5,909.5C 317.152,908.275 318.319,907.608 320,907.5C 322.498,907.917 324.998,908.251 327.5,908.5C 328.149,913.136 328.649,917.802 329,922.5C 330.444,920.845 332.278,920.178 334.5,920.5C 334.284,918.319 335.117,916.653 337,915.5C 339.584,895.58 340.75,875.58 340.5,855.5C 334.008,853.305 328.008,850.305 322.5,846.5C 322.66,844.801 322.494,843.134 322,841.5C 316.286,836.288 311.119,830.622 306.5,824.5C 306.5,824.167 306.5,823.833 306.5,823.5 Z"/></g>
<g><path style="opacity:1" fill="#1f0e02" d="M 342.5,854.5 C 343.901,871.714 343.567,889.048 341.5,906.5C 343.166,909.645 342.833,912.479 340.5,915C 340.833,915.333 341.167,915.667 341.5,916C 339.406,919.411 336.739,922.411 333.5,925C 334.458,926.147 334.125,927.147 332.5,928C 330.444,928.311 328.444,928.811 326.5,929.5C 325.914,929.291 325.414,928.957 325,928.5C 324.501,923.845 324.334,919.179 324.5,914.5C 322.063,914.244 319.729,913.577 317.5,912.5C 315.232,916.354 313.565,920.354 312.5,924.5C 312.294,920.102 312.627,915.768 313.5,911.5C 315.027,911.573 316.027,910.906 316.5,909.5C 319.755,909.014 322.422,910.014 324.5,912.5C 325.274,916.779 325.774,921.113 326,925.5C 326.308,926.308 326.808,926.975 327.5,927.5C 332.526,924.641 336.359,920.641 339,915.5C 340.552,895.208 341.718,874.875 342.5,854.5 Z"/></g>
<g><path style="opacity:1" fill="#1d0b04" d="M 460.5,921.5 C 460.334,926.179 460.501,930.845 461,935.5C 461.77,936.598 462.603,936.598 463.5,935.5C 469.166,931.489 472.833,926.155 474.5,919.5C 474.1,924.565 473.267,929.565 472,934.5C 468.482,935.523 465.315,937.19 462.5,939.5C 461.558,939.392 460.725,939.059 460,938.5C 458.291,935.055 458.125,931.555 459.5,928C 459.225,925.069 458.559,922.235 457.5,919.5C 454.411,918.03 451.911,918.697 450,921.5C 449.667,921.167 449.333,920.833 449,920.5C 447.84,925.434 447.34,930.434 447.5,935.5C 446.521,932.375 446.187,929.042 446.5,925.5C 446.346,921.975 447.679,919.141 450.5,917C 455.308,915.574 458.641,917.074 460.5,921.5 Z"/></g>
<g><path style="opacity:1" fill="#d7b887" d="M 460.5,921.5 C 460.953,926.279 461.953,930.946 463.5,935.5C 462.603,936.598 461.77,936.598 461,935.5C 460.501,930.845 460.334,926.179 460.5,921.5 Z"/></g>
<g><path style="opacity:1" fill="#d6af7b" d="M 495.5,948.5 C 490.377,948.709 485.377,948.042 480.5,946.5C 473.535,948.147 466.868,950.647 460.5,954C 451.142,955.355 442.142,954.188 433.5,950.5C 433.5,949.833 433.5,949.167 433.5,948.5C 441.737,952.294 450.404,953.461 459.5,952C 465.773,949.609 471.94,947.109 478,944.5C 483.939,945.946 489.773,947.279 495.5,948.5 Z"/></g>
<g><path style="opacity:1" fill="#fcbd51" d="M 340.5,938.5 C 345.091,942.425 349.425,946.758 353.5,951.5C 355.239,954.411 357.572,956.911 360.5,959C 374.497,965.639 389.164,967.306 404.5,964C 408.76,962.868 412.76,961.201 416.5,959C 420.217,955.615 424.217,952.615 428.5,950C 430.265,949.36 431.932,949.527 433.5,950.5C 442.142,954.188 451.142,955.355 460.5,954C 466.868,950.647 473.535,948.147 480.5,946.5C 485.377,948.042 490.377,948.709 495.5,948.5C 495.5,949.5 495.5,950.5 495.5,951.5C 499.167,951.5 502.833,951.5 506.5,951.5C 506.5,966.5 506.5,981.5 506.5,996.5C 506.5,997.5 506.5,998.5 506.5,999.5C 443.5,999.5 380.5,999.5 317.5,999.5C 317.5,981.167 317.5,962.833 317.5,944.5C 325.953,945.138 333.62,943.138 340.5,938.5 Z"/></g>
<g><path style="opacity:1" fill="#e8c270" d="M 431.5,947.5 C 432.167,947.833 432.833,948.167 433.5,948.5C 433.5,949.167 433.5,949.833 433.5,950.5C 431.932,949.527 430.265,949.36 428.5,950C 424.217,952.615 420.217,955.615 416.5,959C 412.76,961.201 408.76,962.868 404.5,964C 389.164,967.306 374.497,965.639 360.5,959C 357.572,956.911 355.239,954.411 353.5,951.5C 373.099,966.792 394.099,968.626 416.5,957C 417.453,955.045 418.787,953.378 420.5,952C 423.641,949.181 427.307,947.681 431.5,947.5 Z"/></g>
<g><path style="opacity:1" fill="#d5a761" d="M 495.5,948.5 C 499.452,949.272 503.452,949.605 507.5,949.5C 507.83,965.342 507.496,981.009 506.5,996.5C 506.5,981.5 506.5,966.5 506.5,951.5C 502.833,951.5 499.167,951.5 495.5,951.5C 495.5,950.5 495.5,949.5 495.5,948.5 Z"/></g>
<g><path style="opacity:1" fill="#debb86" d="M 339.5,937.5 C 340.167,937.5 340.5,937.833 340.5,938.5C 333.62,943.138 325.953,945.138 317.5,944.5C 317.5,962.833 317.5,981.167 317.5,999.5C 317.167,999.5 316.833,999.5 316.5,999.5C 316.5,980.833 316.5,962.167 316.5,943.5C 324.848,943.937 332.515,941.937 339.5,937.5 Z"/></g>
</svg>
